<?xml version="1.0" encoding="UTF-8" standalone="no"?>
<svg width="400px" height="400px" viewBox="0 0 400 400" version="1.1" xmlns="http://www.w3.org/2000/svg" xmlns:xlink="http://www.w3.org/1999/xlink">
    <!-- Generator: Sketch 3.7.1 (28215) - http://www.bohemiancoding.com/sketch -->
    <title>Logo White</title>
    <desc>Created with Sketch.</desc>
    <defs></defs>
    <g id="Page-1" stroke="none" stroke-width="1" fill="none" fill-rule="evenodd">
        <g id="Logo-White">
            <circle id="Oval-1" stroke="#FFFFFF" stroke-width="16" cx="200" cy="201" r="167"></circle>
            <g id="book" transform="translate(90.000000, 221.000000)" fill="#FFFFFF">
                <g id="Capa_1">
                    <path d="M214.830669,24.5399227 L205.583737,23.8450697 C203.918959,21.7373491 202.055678,18.1935991 200.897082,12.2403639 L200.398178,9.69058444 L197.822932,9.37359915 C197.540396,9.33852562 169.412522,5.85433444 147.186142,1.15117268 C128.560606,-2.79360673 117.673378,4.40242268 113.856166,7.68411385 C112.666471,8.70124621 111.634255,9.78521679 110.743639,10.8996286 C109.853684,9.78455503 108.820806,8.70521679 107.63442,7.68742268 C103.818531,4.41036385 92.9286566,-2.78037144 74.3011356,1.1544815 C52.0787255,5.85764327 23.9475428,9.34580503 23.6650069,9.37690797 L21.0897614,9.69455503 L20.5961506,12.2403639 C19.4481416,18.1287462 17.615959,21.6572756 15.9657374,23.779555 L5.78584222,24.5399227 C2.34512366,24.7947021 -0.242032031,27.7997756 0.0180068915,31.2435991 C0.276060784,34.6847756 3.28073444,37.2603639 6.72079132,37.0088933 L83.6056326,31.2548491 C87.099947,37.4317609 95.0155847,44.4285991 109.878827,44.4285991 C110.029028,44.4285991 110.168642,44.3968344 110.314872,44.386908 C110.461103,44.3974962 110.600716,44.4285991 110.750917,44.4285991 C125.614821,44.4285991 133.529136,37.4317609 137.024773,31.2548491 L213.904983,37.0088933 C217.365552,37.2643344 220.353022,34.6847756 220.607767,31.2435991 C220.856558,27.7997756 218.274034,24.7947021 214.830669,24.5399227 L214.830669,24.5399227 Z M133.414004,18.4430844 C130.151276,18.2008786 127.409288,20.3800697 126.809148,23.4930109 C126.791944,23.5730844 125.012034,31.9205844 110.740992,31.9205844 C110.590791,31.9205844 110.451178,31.955658 110.304947,31.9655844 C110.158716,31.9549962 110.019103,31.9205844 109.868902,31.9205844 C96.2416716,31.9205844 93.9906476,24.2361727 93.8040548,23.4897021 C93.2039141,20.3734521 90.3633362,18.208158 87.1991985,18.4397756 L24.6442883,23.1230844 C25.5481386,21.1702168 26.3732494,18.8725697 27.0501446,16.1454374 C34.5072404,15.173305 57.1597404,12.0815403 75.781968,8.14536385 C86.5342135,5.8682315 96.7021985,7.72315797 102.984818,13.1079374 C106.210492,15.8787462 107.257264,18.6177903 107.175216,20.1226433 C107.175216,20.1484521 107.185803,20.1696286 107.185803,20.1954374 C107.189112,20.3019815 107.171908,20.4118344 107.179187,20.5197021 C107.189773,20.6838197 107.267851,20.8234521 107.301597,20.9802903 C107.350561,21.2390403 107.394231,21.4832315 107.493483,21.7201433 C107.578839,21.9153639 107.697941,22.0794815 107.815719,22.2541874 C107.95004,22.460658 108.083037,22.6624962 108.253749,22.8332315 C108.412552,22.9867609 108.593851,23.1058786 108.775151,23.2316139 C108.965713,23.360658 109.147013,23.4903639 109.361396,23.5803639 C109.586366,23.6776433 109.823908,23.7166874 110.066082,23.7649962 C110.230178,23.7967609 110.3731,23.8768344 110.544474,23.8874227 C110.612627,23.8913933 110.673501,23.8596286 110.741654,23.8596286 C110.813115,23.8596286 110.874651,23.8913933 110.946112,23.8874227 C111.137998,23.8768344 111.294815,23.7901433 111.478761,23.7477903 C111.689175,23.7027903 111.895618,23.6710256 112.092797,23.5876433 C112.346219,23.4863933 112.563911,23.3361727 112.781603,23.1793344 C112.928495,23.0714668 113.085312,22.9768344 113.214339,22.8477903 C113.40424,22.663158 113.551133,22.4467609 113.697363,22.2197756 C113.803893,22.055658 113.913731,21.9027903 113.997103,21.720805 C114.100324,21.4838933 114.143995,21.2357315 114.192959,20.9736727 C114.226043,20.8168344 114.304782,20.6811727 114.315369,20.517055 C114.322648,20.4085256 114.304782,20.2986727 114.308091,20.1927903 C114.308091,20.1663197 114.318678,20.145805 114.318678,20.1193344 C114.23663,18.6118344 115.285387,15.870805 118.513046,13.1019815 C124.793681,7.71720209 134.958357,5.86293738 145.711926,8.13940797 C164.334815,12.0755844 186.987315,15.1680109 194.443088,16.1401433 C195.127261,18.8983786 195.964944,21.2211727 196.879381,23.1872756 L133.414004,18.4430844 L133.414004,18.4430844 Z" id="Shape"></path>
                </g>
            </g>
            <g id="city" transform="translate(130.000000, 97.000000)" fill="#FFFFFF">
                <path d="M139.768898,131.849624 L139.768898,101.462406 C139.768898,100.040216 138.615719,98.887218 137.193305,98.887218 L134.274298,98.887218 L134.274298,93.2218045 C134.274298,90.2871203 131.886551,87.8997494 128.951404,87.8997494 L117.790497,87.8997494 L117.790497,54.7656642 C117.790497,53.3434737 116.637317,52.1904762 115.214903,52.1904762 L111.986138,52.1904762 C111.030421,48.2916416 107.953445,45.2182406 104.053996,44.2619875 L104.053996,27.2969925 C104.053996,25.874802 102.900816,24.7218045 101.478402,24.7218045 C100.055987,24.7218045 98.9028078,25.874802 98.9028078,27.2969925 L98.9028078,44.2619875 C95.0033585,45.2182406 91.9267257,48.2916416 90.9706652,52.1904762 L90.3174946,52.1904762 L90.3174946,30.0438596 C90.3174946,29.1281228 89.830879,28.2810576 89.0396566,27.8192406 L57.349892,9.3366015 L57.349892,2.57518797 C57.349892,1.15299749 56.1967127,0 54.7742981,0 C53.3518834,0 52.1987041,1.15299749 52.1987041,2.57518797 L52.1987041,43.9498747 L35.5431965,43.9498747 C34.1207819,43.9498747 32.9676026,45.1028722 32.9676026,46.5250627 L32.9676026,77.4767619 L1.95092657,85.2297945 C0.804272138,85.5164987 1.24344979e-14,86.5465739 1.24344979e-14,87.7280702 L1.24344979e-14,131.849625 L139.768898,131.849624 Z M106.973002,98.887218 C105.550587,98.887218 104.397408,100.040216 104.397408,101.462406 L104.397408,118.115288 L90.3174946,118.115288 L90.3174946,95.7969925 L109.892009,95.7969925 L109.892009,98.887218 L106.973002,98.887218 L106.973002,98.887218 Z M134.617711,120.862155 L109.548596,120.862155 L109.548596,115.025063 L134.617711,115.025063 L134.617711,120.862155 L134.617711,120.862155 Z M110.559946,90.6466165 L90.3174946,90.6466165 L90.3174946,68.3283208 L112.639309,68.3283208 L112.639309,88.5675815 C111.766698,89.0524035 111.044844,89.7741429 110.559946,90.6466165 L110.559946,90.6466165 Z M90.3174946,123.265664 L104.397408,123.265664 L104.397408,131.849624 L90.3174946,131.849624 L90.3174946,123.265664 L90.3174946,123.265664 Z M109.548596,126.012531 L134.617711,126.012531 L134.617711,131.849624 L109.548596,131.849624 L109.548596,126.012531 L109.548596,126.012531 Z M134.617711,109.874687 L109.548596,109.874687 L109.548596,104.037594 L134.617711,104.037594 L134.617711,109.874687 L134.617711,109.874687 Z M129.12311,93.2218045 L129.12311,98.887218 L115.043197,98.887218 L115.043197,93.2218045 C115.043197,93.1270376 115.120121,93.0501253 115.214903,93.0501253 L128.951404,93.0501253 C129.046186,93.0501253 129.12311,93.1270376 129.12311,93.2218045 L129.12311,93.2218045 Z M93.2365011,57.3408521 C94.6589158,57.3408521 95.812095,56.1878546 95.812095,54.7656642 C95.812095,51.6417895 98.3540346,49.1002506 101.478402,49.1002506 C104.602769,49.1002506 107.144708,51.6417895 107.144708,54.7656642 C107.144708,56.1878546 108.297888,57.3408521 109.720302,57.3408521 L112.639309,57.3408521 L112.639309,63.1779449 L90.3174946,63.1779449 L90.3174946,57.3408521 L93.2365011,57.3408521 L93.2365011,57.3408521 Z M57.349892,15.2993634 L85.1663067,31.5230476 L85.1663067,131.849624 L79.3282937,131.849624 L79.3282937,35.537594 C79.3282937,34.1154035 78.1751145,32.962406 76.7526998,32.962406 C75.3302851,32.962406 74.1771058,34.1154035 74.1771058,35.537594 L74.1771058,131.849624 L68.3390929,131.849624 L68.3390929,46.5250627 C68.3390929,45.1028722 67.1859136,43.9498747 65.7634989,43.9498747 L57.349892,43.9498747 L57.349892,15.2993634 L57.349892,15.2993634 Z M63.187905,104.037594 L63.187905,109.874687 L38.1187905,109.874687 L38.1187905,104.037594 L63.187905,104.037594 L63.187905,104.037594 Z M38.1187905,98.887218 L38.1187905,93.0501253 L63.187905,93.0501253 L63.187905,98.887218 L38.1187905,98.887218 L38.1187905,98.887218 Z M63.187905,76.9122807 L38.1187905,76.9122807 L38.1187905,71.075188 L63.187905,71.075188 L63.187905,76.9122807 L63.187905,76.9122807 Z M63.187905,82.0626566 L63.187905,87.8997494 L38.1187905,87.8997494 L38.1187905,82.0626566 L63.187905,82.0626566 L63.187905,82.0626566 Z M38.1187905,115.025063 L63.187905,115.025063 L63.187905,120.862155 L38.1187905,120.862155 L38.1187905,115.025063 L38.1187905,115.025063 Z M63.187905,65.924812 L38.1187905,65.924812 L38.1187905,60.0877193 L63.187905,60.0877193 L63.187905,65.924812 L63.187905,65.924812 Z M38.1187905,126.012531 L63.187905,126.012531 L63.187905,131.849624 L38.1187905,131.849624 L38.1187905,126.012531 L38.1187905,126.012531 Z M63.187905,49.1002506 L63.187905,54.9373434 L38.1187905,54.9373434 L38.1187905,49.1002506 L63.187905,49.1002506 L63.187905,49.1002506 Z M5.1511879,89.7387769 L32.9676026,82.7857694 L32.9676026,131.849624 L27.1295896,131.849624 L27.1295896,95.9686717 C27.1295896,94.5464812 25.9764104,93.3934837 24.5539957,93.3934837 C23.131581,93.3934837 21.9784017,94.5464812 21.9784017,95.9686717 L21.9784017,131.849624 L16.1403888,131.849624 L16.1403888,98.7155388 C16.1403888,97.2933484 14.9872095,96.1403509 13.5647948,96.1403509 C12.1423801,96.1403509 10.9892009,97.2933484 10.9892009,98.7155388 L10.9892009,131.849624 L5.1511879,131.849624 L5.1511879,89.7387769 L5.1511879,89.7387769 Z" id="Shape"></path>
            </g>
        </g>
    </g>
</svg>