<?xml version="1.0" encoding="UTF-8" standalone="no"?>
<svg width="700px" height="277px" viewBox="0 0 700 277" version="1.1" xmlns="http://www.w3.org/2000/svg" xmlns:xlink="http://www.w3.org/1999/xlink">
    <!-- Generator: Sketch 3.7.1 (28215) - http://www.bohemiancoding.com/sketch -->
    <title>How it Works Diagram</title>
    <desc>Created with Sketch.</desc>
    <defs>
        <linearGradient x1="0%" y1="0%" x2="127.947998%" y2="124.780273%" id="linearGradient-1">
            <stop stop-color="#3CC76A" offset="0%"></stop>
            <stop stop-color="#089972" offset="100%"></stop>
        </linearGradient>
        <linearGradient x1="0%" y1="0%" x2="127.947998%" y2="124.780273%" id="linearGradient-2">
            <stop stop-color="#4776E6" offset="0%"></stop>
            <stop stop-color="#8E54E9" offset="100%"></stop>
        </linearGradient>
        <linearGradient x1="0%" y1="0%" x2="127.947998%" y2="124.780273%" id="linearGradient-3">
            <stop stop-color="#FF5E3A" offset="0%"></stop>
            <stop stop-color="#FF2A68" offset="100%"></stop>
        </linearGradient>
    </defs>
    <g id="Page-1" stroke="none" stroke-width="1" fill="none" fill-rule="evenodd">
        <g id="How-it-Works-Diagram">
            <g id="Group-2" transform="translate(20.000000, 16.000000)">
                <path d="M82.5,106.5 L359.5,106.5" id="Line" stroke="#DBDBDB" stroke-width="7" stroke-linecap="square"></path>
                <path d="M407.5,106.5 L561.5,106.5" id="Line" stroke="#DBDBDB" stroke-width="7" stroke-linecap="square"></path>
                <path d="M418.5,106.5 C418.5,106.5 445.359375,110.191407 463.011719,93.5625013 C480.664062,76.9335952 489.664062,48.8984376 509.8125,34.5273438 C529.960938,20.1562499 553.457031,28.6757812 553.457031,28.6757812" id="Line-Copy" stroke="#DBDBDB" stroke-width="7" stroke-linecap="square"></path>
                <path d="M418.5,187.180262 C418.5,187.180262 445.359375,190.87167 463.011719,174.242764 C480.664062,157.613858 489.664062,129.5787 509.8125,115.207606 C529.960938,100.836512 553.457031,109.356044 553.457031,109.356044" id="Line-Copy" stroke="#DBDBDB" stroke-width="7" stroke-linecap="square" transform="translate(485.978516, 147.189102) scale(1, -1) translate(-485.978516, -147.189102) "></path>
                <g id="spreadsheet" transform="translate(3.000000, 58.000000)">
                    <g id="Capa_1">
                        <circle id="Oval-1" stroke="url(#linearGradient-1)" stroke-width="7" fill="url(#linearGradient-1)" cx="48.358662" cy="48.358662" r="48.358662"></circle>
                        <path d="M77.9364619,20.0218176 L19.9794567,20.0218176 C18.6884442,20.0218176 17.6393911,21.0709717 17.6393911,22.3586406 L17.6393911,73.5591243 C17.6393911,74.3502005 18.0374241,75.047866 18.6421281,75.4713884 L18.6421281,75.8397195 L19.4813965,75.8397195 C19.6424001,75.8749591 19.8080742,75.8956882 19.9794567,75.8956882 L77.937889,75.8956882 C78.1088824,75.8956882 78.2745565,75.8750886 78.4347816,75.8397195 L78.5498583,75.8397195 L78.5498583,75.8046095 C79.542865,75.5334463 80.2775655,74.634449 80.2775655,73.5592538 L80.2775655,22.3592884 C80.2776952,21.0709717 79.2277339,20.0218176 77.9364619,20.0218176 L77.9364619,20.0218176 Z M78.2715725,22.3592884 L78.2715725,29.0935416 L62.8349494,29.0935416 L62.8349494,22.0249013 L77.9363322,22.0249013 C78.1219858,22.0250308 78.2715725,22.1751876 78.2715725,22.3592884 L78.2715725,22.3592884 Z M78.1104392,73.8365062 L62.8349494,73.8365062 L62.8349494,67.4927384 L78.2714428,67.4927384 L78.2714428,73.5591243 C78.2715725,73.6777987 78.204758,73.7782055 78.1104392,73.8365062 L78.1104392,73.8365062 Z M19.6447353,73.5591243 L19.6447353,67.4927384 L26.8895069,67.4927384 L26.8895069,73.8365062 L19.8057389,73.8365062 C19.7114201,73.7782055 19.6447353,73.6777987 19.6447353,73.5591243 L19.6447353,73.5591243 Z M43.7746432,49.9623548 L43.7746432,56.9079159 L28.8951107,56.9079159 L28.8951107,49.9623548 L43.7746432,49.9623548 L43.7746432,49.9623548 Z M28.8951107,47.959012 L28.8951107,40.4459905 L43.7745135,40.4459905 L43.7745135,47.959012 L28.8951107,47.959012 L28.8951107,47.959012 Z M43.7746432,58.9112587 L43.7746432,65.489266 L28.8951107,65.489266 L28.8951107,58.9112587 L43.7746432,58.9112587 L43.7746432,58.9112587 Z M43.7746432,67.4927384 L43.7746432,73.8365062 L28.8951107,73.8365062 L28.8951107,67.4927384 L43.7746432,67.4927384 L43.7746432,67.4927384 Z M45.7810254,67.4927384 L60.8288268,67.4927384 L60.8288268,73.8365062 L45.7810254,73.8365062 L45.7810254,67.4927384 L45.7810254,67.4927384 Z M45.7810254,65.4893955 L45.7810254,58.9106109 L60.8288268,58.9106109 L60.8288268,65.4893955 L45.7810254,65.4893955 L45.7810254,65.4893955 Z M45.7810254,56.9079159 L45.7810254,49.9623548 L60.8288268,49.9623548 L60.8288268,56.9079159 L45.7810254,56.9079159 L45.7810254,56.9079159 Z M45.7810254,47.959012 L45.7810254,40.4459905 L60.8288268,40.4459905 L60.8288268,47.959012 L45.7810254,47.959012 L45.7810254,47.959012 Z M45.7810254,38.4426476 L45.7810254,31.0964958 L60.8288268,31.0964958 L60.8288268,38.4426476 L45.7810254,38.4426476 L45.7810254,38.4426476 Z M45.7810254,29.0928938 L45.7810254,22.0242535 L60.8288268,22.0242535 L60.8288268,29.0928938 L45.7810254,29.0928938 L45.7810254,29.0928938 Z M43.7746432,29.0928938 L28.8951107,29.0928938 L28.8951107,22.0242535 L43.7745135,22.0242535 L43.7745135,29.0928938 L43.7746432,29.0928938 Z M43.7746432,31.0964958 L43.7746432,38.4426476 L28.8951107,38.4426476 L28.8951107,31.0964958 L43.7746432,31.0964958 L43.7746432,31.0964958 Z M26.8895069,38.4426476 L19.6447353,38.4426476 L19.6447353,31.0964958 L26.8895069,31.0964958 L26.8895069,38.4426476 L26.8895069,38.4426476 Z M26.8895069,40.4459905 L26.8895069,47.959012 L19.6447353,47.959012 L19.6447353,40.4459905 L26.8895069,40.4459905 L26.8895069,40.4459905 Z M26.8895069,49.9623548 L26.8895069,56.9079159 L19.6447353,56.9079159 L19.6447353,49.9623548 L26.8895069,49.9623548 L26.8895069,49.9623548 Z M26.8895069,58.9112587 L26.8895069,65.489266 L19.6447353,65.489266 L19.6447353,58.9112587 L26.8895069,58.9112587 L26.8895069,58.9112587 Z M62.8349494,65.4893955 L62.8349494,58.9106109 L78.2714428,58.9106109 L78.2714428,65.4893955 L62.8349494,65.4893955 L62.8349494,65.4893955 Z M62.8349494,56.9079159 L62.8349494,49.9623548 L78.2714428,49.9623548 L78.2714428,56.9079159 L62.8349494,56.9079159 L62.8349494,56.9079159 Z M62.8349494,47.959012 L62.8349494,40.4459905 L78.2714428,40.4459905 L78.2714428,47.959012 L62.8349494,47.959012 L62.8349494,47.959012 Z M62.8349494,38.4426476 L62.8349494,31.0964958 L78.2714428,31.0964958 L78.2714428,38.4426476 L62.8349494,38.4426476 L62.8349494,38.4426476 Z" id="Shape" fill="#FFFFFF"></path>
                    </g>
                </g>
                <circle id="Oval-1" stroke="url(#linearGradient-2)" stroke-width="7" fill="url(#linearGradient-2)" cx="220.358662" cy="106.358662" r="48.358662"></circle>
                <path d="M250.37579,119.764825 L247.698131,119.563614 C247.216056,118.953276 246.6765,117.927102 246.341002,116.203207 L246.196533,115.46486 L245.450812,115.37307 C245.368997,115.362913 237.223929,114.353986 230.787774,112.992078 C225.394325,111.849778 222.241679,113.933552 221.136318,114.883841 C220.791815,115.178375 220.492913,115.492263 220.235015,115.814966 C219.977308,115.492071 219.678215,115.179524 219.33467,114.884799 C218.229692,113.935852 215.07628,111.85361 209.682256,112.993037 C203.24725,114.354944 195.101224,115.365021 195.01941,115.374028 L194.273688,115.46601 L194.130752,116.203207 C193.79832,117.908322 193.26777,118.930089 192.78991,119.544643 L189.842089,119.764825 C188.845751,119.838602 188.096581,120.70879 188.171881,121.706027 C188.246606,122.702499 189.116678,123.448319 190.112825,123.3755 L212.376586,121.709285 C213.388444,123.497951 215.680598,125.524045 219.984589,125.524045 C220.028083,125.524045 220.068512,125.514847 220.110856,125.511973 C220.1532,125.515039 220.193629,125.524045 220.237123,125.524045 C224.541305,125.524045 226.833076,123.497951 227.845318,121.709285 L250.107737,123.3755 C251.109824,123.449469 251.974914,122.702499 252.048681,121.706027 C252.120724,120.70879 251.372896,119.838602 250.37579,119.764825 L250.37579,119.764825 Z M226.799737,117.999346 C225.85494,117.92921 225.060934,118.560245 224.88715,119.461668 C224.882168,119.484855 224.366755,121.902064 220.234249,121.902064 C220.190755,121.902064 220.150326,121.91222 220.107982,121.915095 C220.065638,121.912029 220.025209,121.902064 219.981715,121.902064 C216.035639,121.902064 215.383804,119.676867 215.329772,119.46071 C215.155987,118.558328 214.333433,117.931318 213.417185,117.998388 L195.302983,119.354547 C195.564713,118.78905 195.803643,118.123714 195.999653,117.33401 C198.159026,117.052507 204.718574,116.157216 210.111065,115.017406 C213.224623,114.358011 216.168996,114.895147 217.988272,116.454433 C218.922339,117.256784 219.225456,118.049936 219.201697,118.485701 C219.201697,118.493174 219.204763,118.499307 219.204763,118.50678 C219.205721,118.537632 219.200739,118.569443 219.202847,118.600678 C219.205912,118.648202 219.228521,118.688636 219.238293,118.734052 C219.252472,118.808979 219.265118,118.87969 219.293858,118.948293 C219.318575,119.004824 219.353064,119.052348 219.387169,119.102938 C219.426065,119.162726 219.464577,119.221173 219.514011,119.270614 C219.559996,119.315071 219.612495,119.349565 219.664994,119.385974 C219.720176,119.423342 219.772676,119.460901 219.834755,119.486963 C219.8999,119.515132 219.968686,119.526438 220.038813,119.540427 C220.086331,119.549625 220.127717,119.572813 220.177342,119.575879 C220.197078,119.577028 220.214705,119.56783 220.23444,119.56783 C220.255133,119.56783 220.272953,119.577028 220.293646,119.575879 C220.349211,119.572813 220.394621,119.547709 220.447887,119.535445 C220.508817,119.522414 220.568597,119.513216 220.625695,119.489071 C220.699079,119.459751 220.762117,119.416252 220.825154,119.370836 C220.86769,119.3396 220.9131,119.312197 220.950463,119.274829 C221.005453,119.221365 221.047989,119.158702 221.090333,119.092973 C221.121182,119.045449 221.152988,119.001183 221.17713,118.948485 C221.20702,118.879882 221.219666,118.808021 221.233845,118.732136 C221.243425,118.68672 221.266226,118.647436 221.269291,118.599912 C221.271399,118.568485 221.266226,118.536674 221.267184,118.506014 C221.267184,118.498348 221.270249,118.492408 221.270249,118.484743 C221.24649,118.048212 221.550182,117.254484 222.484824,116.452708 C224.303525,114.893422 227.24694,114.356478 230.360881,115.015682 C235.753564,116.155491 242.313112,117.050974 244.472101,117.332477 C244.670219,118.131187 244.912789,118.803805 245.177585,119.373135 L226.799737,117.999346 L226.799737,117.999346 Z" id="Shape" fill="#FFFFFF"></path>
                <g id="city" transform="translate(199.714286, 76.476190)" fill="#FFFFFF">
                    <path d="M40.4732749,38.1800683 L40.4732749,29.3807557 C40.4732749,28.9689279 40.1393456,28.6350512 39.7274529,28.6350512 L38.882188,28.6350512 L38.882188,26.9945014 C38.882188,26.1446966 38.1907612,25.4533788 37.3408224,25.4533788 L34.108927,25.4533788 L34.108927,15.8586481 C34.108927,15.4468204 33.7749977,15.1129437 33.363105,15.1129437 L32.4281425,15.1129437 C32.1513928,13.9839471 31.2603841,13.0939737 30.1312096,12.8170688 L30.1312096,7.90446726 C30.1312096,7.49263954 29.7972802,7.1587628 29.3853876,7.1587628 C28.9734949,7.1587628 28.6395656,7.49263954 28.6395656,7.90446726 L28.6395656,12.8170688 C27.510391,13.0939737 26.6194818,13.9839471 26.3426326,15.1129437 L26.1534922,15.1129437 L26.1534922,8.69988534 C26.1534922,8.43471284 26.0125815,8.18942579 25.783465,8.05569612 L16.6069703,2.70362608 L16.6069703,0.745704458 C16.6069703,0.333876743 16.2730409,0 15.8611483,0 C15.4492556,0 15.1153263,0.333876743 15.1153263,0.745704458 L15.1153263,12.7266894 L10.2923439,12.7266894 C9.88045123,12.7266894 9.54652185,13.0605662 9.54652185,13.4723939 L9.54652185,22.4351649 L0.564935319,24.6802325 C0.232895356,24.7632542 7.15340637e-15,25.061536 7.15340637e-15,25.4036652 L7.15340637e-15,38.1800684 L40.4732749,38.1800683 Z M30.9764745,28.6350512 C30.5645819,28.6350512 30.2306525,28.9689279 30.2306525,29.3807557 L30.2306525,34.2029778 L26.1534922,34.2029778 L26.1534922,27.7402058 L31.8217395,27.7402058 L31.8217395,28.6350512 L30.9764745,28.6350512 L30.9764745,28.6350512 Z M38.9816309,34.9983959 L31.7222966,34.9983959 L31.7222966,33.3081325 L38.9816309,33.3081325 L38.9816309,34.9983959 L38.9816309,34.9983959 Z M32.015156,26.2487969 L26.1534922,26.2487969 L26.1534922,19.786025 L32.617283,19.786025 L32.617283,25.6467649 C32.3645985,25.7871562 32.1555694,25.9961523 32.015156,26.2487969 L32.015156,26.2487969 Z M26.1534922,35.6943867 L30.2306525,35.6943867 L30.2306525,38.1800683 L26.1534922,38.1800683 L26.1534922,35.6943867 L26.1534922,35.6943867 Z M31.7222966,36.4898048 L38.9816309,36.4898048 L38.9816309,38.1800683 L31.7222966,38.1800683 L31.7222966,36.4898048 L31.7222966,36.4898048 Z M38.9816309,31.8167235 L31.7222966,31.8167235 L31.7222966,30.1264601 L38.9816309,30.1264601 L38.9816309,31.8167235 L38.9816309,31.8167235 Z M37.3905439,26.9945014 L37.3905439,28.6350512 L33.3133835,28.6350512 L33.3133835,26.9945014 C33.3133835,26.9670595 33.3356588,26.9447878 33.363105,26.9447878 L37.3408224,26.9447878 C37.3682687,26.9447878 37.3905439,26.9670595 37.3905439,26.9945014 L37.3905439,26.9945014 Z M26.9987571,16.6043526 C27.4106498,16.6043526 27.7445791,16.2704759 27.7445791,15.8586481 C27.7445791,14.9540589 28.4806557,14.2180983 29.3853876,14.2180983 C30.2901194,14.2180983 31.026196,14.9540589 31.026196,15.8586481 C31.026196,16.2704759 31.3601254,16.6043526 31.772018,16.6043526 L32.617283,16.6043526 L32.617283,18.294616 L26.1534922,18.294616 L26.1534922,16.6043526 L26.9987571,16.6043526 L26.9987571,16.6043526 Z M16.6069703,4.4302799 L24.6618481,9.12821799 L24.6618481,38.1800683 L22.9713182,38.1800683 L22.9713182,10.2907215 C22.9713182,9.87889381 22.6373888,9.54501706 22.2254962,9.54501706 C21.8136035,9.54501706 21.4796742,9.87889381 21.4796742,10.2907215 L21.4796742,38.1800683 L19.7891443,38.1800683 L19.7891443,13.4723939 C19.7891443,13.0605662 19.4552149,12.7266894 19.0433222,12.7266894 L16.6069703,12.7266894 L16.6069703,4.4302799 L16.6069703,4.4302799 Z M18.2975002,30.1264601 L18.2975002,31.8167235 L11.0381659,31.8167235 L11.0381659,30.1264601 L18.2975002,30.1264601 L18.2975002,30.1264601 Z M11.0381659,28.6350512 L11.0381659,26.9447878 L18.2975002,26.9447878 L18.2975002,28.6350512 L11.0381659,28.6350512 L11.0381659,28.6350512 Z M18.2975002,22.2717065 L11.0381659,22.2717065 L11.0381659,20.581443 L18.2975002,20.581443 L18.2975002,22.2717065 L18.2975002,22.2717065 Z M18.2975002,23.7631154 L18.2975002,25.4533788 L11.0381659,25.4533788 L11.0381659,23.7631154 L18.2975002,23.7631154 L18.2975002,23.7631154 Z M11.0381659,33.3081325 L18.2975002,33.3081325 L18.2975002,34.9983959 L11.0381659,34.9983959 L11.0381659,33.3081325 L11.0381659,33.3081325 Z M18.2975002,19.0900341 L11.0381659,19.0900341 L11.0381659,17.3997707 L18.2975002,17.3997707 L18.2975002,19.0900341 L18.2975002,19.0900341 Z M11.0381659,36.4898048 L18.2975002,36.4898048 L18.2975002,38.1800683 L11.0381659,38.1800683 L11.0381659,36.4898048 L11.0381659,36.4898048 Z M18.2975002,14.2180983 L18.2975002,15.9083618 L11.0381659,15.9083618 L11.0381659,14.2180983 L18.2975002,14.2180983 L18.2975002,14.2180983 Z M1.49164404,25.9859112 L9.54652185,23.9725092 L9.54652185,38.1800683 L7.85599194,38.1800683 L7.85599194,27.7899195 C7.85599194,27.3780918 7.52206256,27.044215 7.11016992,27.044215 C6.69827728,27.044215 6.3643479,27.3780918 6.3643479,27.7899195 L6.3643479,38.1800683 L4.67381799,38.1800683 L4.67381799,28.5853376 C4.67381799,28.1735098 4.33988861,27.8396331 3.92799597,27.8396331 C3.51610333,27.8396331 3.18217395,28.1735098 3.18217395,28.5853376 L3.18217395,38.1800683 L1.49164404,38.1800683 L1.49164404,25.9859112 L1.49164404,25.9859112 Z" id="Shape"></path>
                </g>
                <circle id="Oval-1" stroke="url(#linearGradient-3)" stroke-width="7" fill="url(#linearGradient-3)" cx="386.358662" cy="106.358662" r="48.358662"></circle>
                <g id="source-page" transform="translate(358.000000, 79.000000)" fill="#FFFFFF">
                    <g id="Capa_1">
                        <g id="Group">
                            <g transform="translate(11.386503, 21.290323)" id="Shape">
                                <path d="M11.6590675,17.3086774 C11.6354049,17.145629 11.5478712,16.9987258 11.415681,16.9000806 L4.70831902,11.8980968 L11.415681,6.8961129 C11.5478712,6.79746774 11.6354049,6.65056452 11.6590675,6.48751613 C11.6825521,6.32446774 11.6403865,6.15893548 11.5412883,6.02675806 L10.4757607,4.60598387 C10.2695583,4.33133871 9.87957055,4.27509677 9.60415951,4.48072581 L0.324693252,11.4007903 C0.167595092,11.5178871 0.0749018405,11.7022258 0.0749018405,11.8980968 C0.0749018405,12.0939677 0.167595092,12.2783065 0.324693252,12.3954032 L9.60415951,19.3154677 C9.71588957,19.3990323 9.84683436,19.439129 9.97653374,19.439129 C10.1661902,19.439129 10.3535337,19.3532581 10.4757607,19.1902097 L11.5412883,17.7694355 C11.6402086,17.6372581 11.6825521,17.4717258 11.6590675,17.3086774 L11.6590675,17.3086774 Z"></path>
                                <path d="M34.8295337,11.4007903 L25.5504233,4.48072581 C25.2750123,4.27527419 24.8850245,4.33151613 24.679,4.60598387 L23.6134724,6.02675806 C23.5145521,6.15875806 23.4722086,6.32446774 23.4956933,6.48751613 C23.5193558,6.6503871 23.6067117,6.79746774 23.7390798,6.8961129 L30.4462638,11.8980968 L23.7390798,16.9000806 C23.6067117,16.9987258 23.5193558,17.1458065 23.4956933,17.3086774 C23.4722086,17.4717258 23.5143742,17.6374355 23.6134724,17.7694355 L24.679,19.1902097 C24.8014049,19.3532581 24.9885706,19.439129 25.178227,19.439129 C25.3079264,19.439129 25.4386933,19.3988548 25.5506012,19.3154677 L34.8297117,12.3954032 C34.9868098,12.2783065 35.0795031,12.0939677 35.0795031,11.8980968 C35.0795031,11.7022258 34.9866319,11.5178871 34.8295337,11.4007903 L34.8295337,11.4007903 Z"></path>
                                <path d="M23.5316319,0.787032258 L21.892865,0.095983871 C21.7409264,0.0317580645 21.5694172,0.0306935484 21.4162331,0.0924354839 C21.263227,0.154354839 21.141,0.274290323 21.076773,0.425983871 L11.2914969,23.5054032 C11.1575276,23.8212097 11.3057301,24.185629 11.6225951,24.3192258 L13.261362,25.0102742 C13.3387546,25.0430968 13.4213067,25.0592419 13.5038589,25.0592419 C13.5833865,25.0592419 13.6629141,25.0439839 13.7379939,25.0136452 C13.891,24.9517258 14.0130491,24.8317903 14.077454,24.6800968 L23.8627301,1.60067742 C23.9965215,1.28487097 23.848319,0.920629032 23.5316319,0.787032258 L23.5316319,0.787032258 Z"></path>
                            </g>
                            <path d="M54.8139141,0.0821451613 L3.11349693,0.0821451613 C1.39680368,0.0821451613 0,1.47506452 0,3.18698387 L0,51.740629 C0,53.4525484 1.39680368,54.8454677 3.11349693,54.8454677 L54.8139141,54.8454677 C56.5306074,54.8454677 57.927411,53.4525484 57.927411,51.740629 L57.927411,3.18698387 C57.927411,1.4748871 56.5306074,0.0821451613 54.8139141,0.0821451613 L54.8139141,0.0821451613 Z M48.6532822,4.84283871 C50.0757055,4.84283871 51.2330368,5.99695161 51.2330368,7.41541935 C51.2330368,8.8338871 50.0757055,9.988 48.6532822,9.988 C47.2308589,9.988 46.0735276,8.8338871 46.0735276,7.41541935 C46.0735276,5.99695161 47.2308589,4.84283871 48.6532822,4.84283871 L48.6532822,4.84283871 Z M39.9050675,4.84283871 C41.3274908,4.84283871 42.4848221,5.99695161 42.4848221,7.41541935 C42.4848221,8.8338871 41.3274908,9.988 39.9050675,9.988 C38.4826442,9.988 37.3253129,8.8338871 37.3253129,7.41541935 C37.3253129,5.99695161 38.4826442,4.84283871 39.9050675,4.84283871 L39.9050675,4.84283871 Z M7.89920859,6.08477419 L18.307184,6.08477419 C19.0441043,6.08477419 19.6415399,6.68037097 19.6415399,7.41541935 C19.6415399,8.15046774 19.0441043,8.74606452 18.307184,8.74606452 L7.89920859,8.74606452 C7.16228834,8.74606452 6.56485276,8.15046774 6.56485276,7.41541935 C6.56485276,6.68037097 7.16228834,6.08477419 7.89920859,6.08477419 L7.89920859,6.08477419 Z M52.9821104,49.4655806 C52.9821104,49.6887742 52.7999264,49.870629 52.5757546,49.870629 L5.35165644,49.870629 C5.12766258,49.870629 4.94530061,49.6887742 4.94530061,49.4655806 L4.94530061,16.0273548 L52.9821104,16.0273548 L52.9821104,49.4655806 L52.9821104,49.4655806 Z" id="Shape"></path>
                        </g>
                    </g>
                </g>
                <text id="Publish-and-edit-you" font-family="Helvetica" font-size="14" font-weight="normal" fill="#606C71">
                    <tspan x="22" y="189">Publish and edit </tspan>
                    <tspan x="22" y="206">your contact list </tspan>
                    <tspan x="22" y="223">in a Google </tspan>
                    <tspan x="22" y="240">spreadsheet.</tspan>
                </text>
                <text id="CityBook-takes-your-" font-family="Helvetica" font-size="14" font-weight="normal" fill="#606C71">
                    <tspan x="194" y="192">CityBook takes </tspan>
                    <tspan x="194" y="209">your spreadsheet </tspan>
                    <tspan x="194" y="226">and transforms it </tspan>
                    <tspan x="194" y="243">into a contact list. </tspan>
                </text>
                <text id="Share-CityBook-via-l" font-family="Helvetica" font-size="14" font-weight="normal" fill="#606C71">
                    <tspan x="360" y="192">Share CityBook via </tspan>
                    <tspan x="360" y="209">link, or embed it in </tspan>
                    <tspan x="360" y="226">your website.</tspan>
                </text>
                <text id="Mobile" font-family="Helvetica" font-size="14" font-weight="normal" fill="#606C71">
                    <tspan x="603" y="30">Mobile</tspan>
                </text>
                <text id="Desktop" font-family="Helvetica" font-size="14" font-weight="normal" fill="#606C71">
                    <tspan x="603" y="112">Desktop</tspan>
                </text>
                <text id="Printer-friendly" font-family="Helvetica" font-size="14" font-weight="normal" fill="#606C71">
                    <tspan x="603" y="184">Printer </tspan>
                    <tspan x="603" y="201">friendly</tspan>
                </text>
                <path d="M1,177.5 L1,242.5" id="Line" stroke="#35C16B" stroke-width="2" stroke-linecap="square"></path>
                <path d="M172,177.5 L172,242.5" id="Line" stroke="#5171E6" stroke-width="2" stroke-linecap="square"></path>
                <path d="M338,177.5 L338,242.5" id="Line" stroke="#FF3B59" stroke-width="2" stroke-linecap="square"></path>
                <rect id="Rectangle-1" fill="#9B9B9B" x="533" y="80" width="59" height="53" rx="6"></rect>
                <rect id="Rectangle-1" fill="#9B9B9B" x="533" y="161" width="59" height="53" rx="6"></rect>
                <rect id="Rectangle-1" fill="#9B9B9B" x="533" y="0" width="59" height="53" rx="6"></rect>
                <g id="smartphone-call" transform="translate(551.000000, 8.000000)" fill="#FFFFFF">
                    <g id="Capa_1">
                        <path d="M20.0450476,0 L2.95495238,0 C1.53114286,0 0.365809524,1.15411429 0.365809524,2.56662857 L0.365809524,35.4322857 C0.365809524,36.8448 1.53114286,38 2.95495238,38 L20.0450476,38 C21.4688571,38 22.6341905,36.8469714 22.6341905,35.4333714 L22.6341905,2.56662857 C22.6341905,1.15411429 21.4688571,0 20.0450476,0 L20.0450476,0 Z M8.76628571,1.85005714 L14.2337143,1.85005714 C14.4067619,1.85005714 14.5469524,1.98902857 14.5469524,2.16165714 C14.5469524,2.3332 14.4067619,2.47217143 14.2337143,2.47217143 L8.76628571,2.47217143 C8.5932381,2.47217143 8.45304762,2.3332 8.45304762,2.16165714 C8.45304762,1.98902857 8.5932381,1.85005714 8.76628571,1.85005714 L8.76628571,1.85005714 Z M11.5,36.7166857 C10.7848095,36.7166857 10.2054286,36.1423429 10.2054286,35.4322857 C10.2054286,34.7222286 10.7848095,34.1489714 11.5,34.1489714 C12.2151905,34.1489714 12.7945714,34.7222286 12.7945714,35.4322857 C12.7945714,36.1423429 12.2151905,36.7166857 11.5,36.7166857 L11.5,36.7166857 Z M20.8325238,33.25 L2.16747619,33.25 L2.16747619,4.07034286 L20.8325238,4.07034286 L20.8325238,33.25 L20.8325238,33.25 Z" id="Shape"></path>
                    </g>
                </g>
                <g id="desktop-monitor" transform="translate(542.000000, 89.000000)" fill="#FFFFFF">
                    <g id="Capa_1">
                        <path d="M38.9617486,1.02683824 C38.3100182,0.369117647 37.5268488,0.0399264706 36.6112204,0.0399264706 L3.32830601,0.0399264706 C2.41304189,0.0399264706 1.62972678,0.369117647 0.977559199,1.02683824 C0.32575592,1.68477941 0,2.47522059 0,3.39897059 L0,26.2396324 C0,27.1636029 0.32575592,27.9539706 0.977559199,28.6120588 C1.62972678,29.2697794 2.41304189,29.5983824 3.32830601,29.5983824 L14.6447359,29.5983824 C14.6447359,30.1300735 14.5336976,30.6763971 14.3117668,31.2358088 C14.0899818,31.7956618 13.868051,32.2852941 13.6461202,32.705 C13.4244809,33.1252206 13.3135155,33.4327206 13.3135155,33.6285294 C13.3135155,33.9923529 13.445173,34.3079412 13.7087067,34.5731618 C13.9720947,34.8394118 14.284153,34.9727941 14.6447359,34.9727941 L25.2953005,34.9727941 C25.6558834,34.9727941 25.9680146,34.8394853 26.2314026,34.5731618 C26.4951548,34.3080147 26.6268124,33.9924265 26.6268124,33.6285294 C26.6268124,33.4470588 26.5156284,33.1424265 26.2937705,32.7156618 C26.0718397,32.2891176 25.8499089,31.7916912 25.6282696,31.2254412 C25.4063388,30.6585294 25.2953734,30.11625 25.2953734,29.5983824 L36.6118033,29.5983824 C37.5269217,29.5983824 38.3100911,29.2697794 38.9618215,28.6120588 C39.6138434,27.9540441 39.939745,27.1636765 39.939745,26.2396324 L39.939745,3.39897059 C39.9399636,2.47522059 39.6137705,1.68477941 38.9617486,1.02683824 L38.9617486,1.02683824 Z M37.2770128,20.8652941 C37.2770128,21.0472794 37.2112204,21.2044853 37.07949,21.3376471 C36.9476138,21.4702941 36.7915483,21.5366912 36.6112204,21.5366912 L3.32830601,21.5366912 C3.14812386,21.5366912 2.99205829,21.4702941 2.86032787,21.3376471 C2.72867031,21.2040441 2.66273224,21.0472794 2.66273224,20.8652941 L2.66273224,3.39897059 C2.66273224,3.21698529 2.72845173,3.05963235 2.86032787,2.92669118 C2.99213115,2.79397059 3.14819672,2.72727941 3.32830601,2.72727941 L36.6117304,2.72727941 C36.7917668,2.72727941 36.9481239,2.79375 37.07949,2.92669118 C37.2112204,3.05970588 37.2770128,3.21705882 37.2770128,3.39897059 L37.2770128,20.8652941 L37.2770128,20.8652941 L37.2770128,20.8652941 Z" id="Shape"></path>
                    </g>
                </g>
                <g id="printer-tool" transform="translate(544.000000, 171.000000)" fill="#FFFFFF">
                    <g id="Capa_1">
                        <g id="Group">
                            <path d="M8.98555556,2.24644444 L26.9562222,2.24644444 L26.9562222,6.73911111 L29.2026667,6.73911111 L29.2026667,2.24644444 C29.2026667,1.00703704 28.1980741,0 26.9562222,0 L8.98555556,0 C7.74622222,0 6.73911111,1.00703704 6.73911111,2.24644444 L6.73911111,6.73911111 L8.98555556,6.73911111 L8.98555556,2.24644444 L8.98555556,2.24644444 Z" id="Shape"></path>
                            <path d="M33.6955556,8.98548148 L2.24651852,8.98548148 C1.00718519,8.98548148 7.40740741e-05,9.99222222 7.40740741e-05,11.2317037 L7.40740741e-05,22.4634815 C7.40740741e-05,23.7052593 1.00711111,24.7099259 2.24651852,24.7099259 L6.73918519,24.7099259 L6.73918519,33.6952593 C6.73918519,34.937037 7.74622222,35.9416296 8.98562963,35.9416296 L26.9562963,35.9416296 C28.1981481,35.9416296 29.2027407,34.937037 29.2027407,33.6952593 L29.2027407,24.7099259 L33.6955556,24.7099259 C34.936963,24.7099259 35.9416296,23.7052593 35.9416296,22.4634815 L35.9416296,11.2317037 C35.9416296,9.99222222 34.9368889,8.98548148 33.6955556,8.98548148 L33.6955556,8.98548148 Z M26.9562222,33.6952593 L8.98555556,33.6952593 L8.98555556,17.9708148 L26.9562222,17.9708148 L26.9562222,33.6952593 L26.9562222,33.6952593 Z M31.449037,15.7245926 C30.2072593,15.7245926 29.2026667,14.7198519 29.2026667,13.4781481 C29.2026667,12.2388148 30.2072593,11.2317037 31.449037,11.2317037 C32.6908889,11.2317037 33.6954815,12.2387407 33.6954815,13.4781481 C33.6955556,14.7197778 32.6908889,15.7245926 31.449037,15.7245926 L31.449037,15.7245926 Z" id="Shape"></path>
                            <rect id="Rectangle-path" x="11.2317778" y="20.217037" width="8.98548148" height="2.24644444"></rect>
                            <rect id="Rectangle-path" x="11.2317778" y="24.7099259" width="13.4783704" height="2.246"></rect>
                            <rect id="Rectangle-path" x="11.2317778" y="29.2027407" width="13.4783704" height="2.24607407"></rect>
                        </g>
                    </g>
                </g>
                <g id="CityBook-Logo" transform="translate(188.000000, 112.000000)">
                    <g id="book" transform="translate(0.166667, 0.658730)">
                        <g id="Capa_1"></g>
                    </g>
                </g>
            </g>
        </g>
    </g>
</svg>